<svg xmlns="http://www.w3.org/2000/svg" viewBox="0 0 64 64" role="img" aria-label="Dispatch Raw Icon">
  <defs>
    <linearGradient id="bg" x1="0" y1="0" x2="1" y2="1">
      <stop offset="0%" stop-color="#ef4444" />
      <stop offset="50%" stop-color="#3b82f6" />
      <stop offset="100%" stop-color="#10b981" />
    </linearGradient>
    <radialGradient id="glow" cx="30%" cy="25%" r="70%">
      <stop offset="0%" stop-color="#ffffff" stop-opacity="0.45" />
      <stop offset="100%" stop-color="#ffffff" stop-opacity="0" />
    </radialGradient>
  </defs>

  <rect x="4" y="4" width="56" height="56" rx="14" fill="url(#bg)" />
  <rect x="4" y="4" width="56" height="56" rx="14" fill="url(#glow)" />

  <path d="M32 16l14 6v9c0 10-5.8 17.5-14 20-8.2-2.5-14-10-14-20v-9l14-6z" fill="#0b1220" fill-opacity="0.35"/>
  <path d="M32 20l10 4.2v6.3c0 7.8-4.3 13.7-10 15.8-5.7-2.1-10-8-10-15.8v-6.3L32 20z" fill="#ffffff" fill-opacity="0.95"/>
  <path d="M29 27l10 5-10 5v-10z" fill="#ef4444"/>

  <circle cx="49" cy="16" r="4" fill="#fde047" />
</svg>
